{"title":"Thunderbirds Are Go! - S01E01 AVC-AAC- {OJ}.mp4","uid":11876034,"size":366990702,"categoryP":"video","categoryS":"tv_shows","magnet":"?xt=urn:btih:3456c9f6dba7d98589d6b99e86a52f4c8310cfcd&amp;dn=Thunderbirds+Are+Go%21+-+S01E01+AVC-AAC-+%7BOJ%7D.mp4&amp;tr=udp%3A%2F%2Ftracker.openbittorrent.com%3A80&amp;tr=udp%3A%2F%2Fopen.demonii.com%3A1337&amp;tr=udp%3A%2F%2Ftracker.coppersurfer.tk%3A6969&amp;tr=udp%3A%2F%2Fexodus.desync.com%3A6969","seeders":0,"leechers":1,"uploader":"despo1ler","files":1,"time":1430562656,"description":"[center][size=&quot;5&quot;][font=&quot;Arial Black&quot;]Thunderbirds Are Go! - S01E01 webdl {oj}[/font][/size]\n\n\n\n[b]Information: [/b]\n------------------------------------------------------------------------------\n\nA powerful seaquake turns a busy day for International Rescue into a perilous one. Lady Penelope helps Thunderbirds find who put seismic destabilisers on the sea bed.\n\n\n\n------------------------------------------------------------------------------\n\n[b]Links and Screenshots :[/b]\n\n------------------------------------------------------------------------------\n\n\n\n- [url]. http://www.theguardian.com/media/2015/feb/26/thunderbirds-remake-lady-penelope-brains\n[/url].\n\n[b]Thumbnails [/b]\n\n\n------------------------------------------------------------------------------\n[/center]\n\n[b]Technical Specs :\n\nGeneral\nFormat : MPEG-4\nFormat profile : Base Media\nCodec ID : isom\nFile size : 350 MiB\nDuration : 43mn 24s\nOverall bit rate : 1 127 Kbps\nEncoded date : UTC 2015-04-04 20:08:16\nTagged date : UTC 2015-04-04 20:08:16\n\nVideo\nID : 1\nFormat : AVC\nFormat/Info : Advanced Video Codec\nFormat profile : &lt;a class=&quot;__cf_email__&quot; href=&quot;/cdn-cgi/l/email-protection&quot; data-cfemail=&quot;337b5a545b737f001d03&quot;&gt;[email&amp;#160;protected]&lt;/a&gt;&lt;script cf-hash='f9e31' type=&quot;text/javascript&quot;&gt;\n/* &lt;![CDATA[ */!function(){try{var t=&quot;currentScript&quot;in document?document.currentScript:function(){for(var t=document.getElementsByTagName(&quot;script&quot;),e=t.length;e--;)if(t[e].getAttribute(&quot;cf-hash&quot;))return t[e]}();if(t&amp;&amp;t.previousSibling){var e,r,n,i,c=t.previousSibling,a=c.getAttribute(&quot;data-cfemail&quot;);if(a){for(e=&quot;&quot;,r=parseInt(a.substr(0,2),16),n=2;a.length-n;n+=2)i=parseInt(a.substr(n,2),16)^r,e+=String.fromCharCode(i);e=document.createTextNode(e),c.parentNode.replaceChild(e,c)}}}catch(u){}}();/* ]]&gt; */&lt;/script&gt;\nFormat settings, CABAC : Yes\nFormat settings, ReFrames : 4 frames\nCodec ID : avc1\nCodec ID/Info : Advanced Video Coding\nDuration : 43mn 24s\nBit rate : 677 Kbps\nMaximum bit rate : 2 561 Kbps\nWidth : 704 pixels\nHeight : 396 pixels\nDisplay aspect ratio : 16:9\nFrame rate mode : Constant\nFrame rate : 25.000 fps\nColor space : YUV\nChroma subsampling : 4:2:0\nBit depth : 8 bits\nScan type : Progressive\nBits/(Pixel*Frame) : 0.097\nStream size : 210 MiB (60%)\nWriting library : x264 core 146 r2538 121396c\nEncoding settings : cabac=1 / ref=3 / deblock=1:0:0 / analyse=0x3:0x113 / me=hex / subme=7 / psy=1 / psy_rd=1.00:0.00 / mixed_ref=1 / me_range=16 / chroma_me=1 / \n\ntrellis=1 / 8x8dct=1 / cqm=0 / deadzone=21,11 / fast_pskip=1 / chroma_qp_offset=-2 / threads=4 / lookahead_threads=1 / sliced_threads=0 / nr=0 / decimate=1 / interlaced=0 / \n\nbluray_compat=0 / constrained_intra=0 / bframes=3 / b_pyramid=2 / b_adapt=1 / b_bias=0 / direct=1 / weightb=1 / open_gop=0 / weightp=2 / keyint=250 / keyint_min=25 / \n\nscenecut=40 / intra_refresh=0 / rc_lookahead=40 / rc=2pass / mbtree=1 / bitrate=677 / ratetol=1.0 / qcomp=0.60 / qpmin=0 / qpmax=69 / qpstep=4 / cplxblur=20.0 / qblur=0.5 / \n\nip_ratio=1.40 / aq=1:1.00\nEncoded date : UTC 2015-04-04 20:08:16\nTagged date : UTC 2015-04-04 20:12:39\n\nAudio\nID : 2\nFormat : AC-3\nFormat/Info : Audio Coding 3\nMode extension : CM (complete main)\nFormat settings, Endianness : Big\nCodec ID : ac-3\nDuration : 43mn 24s\nBit rate mode : Constant\nBit rate : 448 Kbps\nChannel(s) : 2 channels\nChannel positions : Front: L R\nSampling rate : 48.0 KHz\nBit depth : 16 bits\nCompression mode : Lossy\nStream size : 139 MiB (40%)\nEncoded date : UTC 2015-04-04 20:10:17\nTagged date : UTC 2015-04-04 20:12:39\n\n[/b]","torrent":{"xt":"urn:btih:3456c9f6dba7d98589d6b99e86a52f4c8310cfcd","amp;dn":"Thunderbirds+Are+Go%21+-+S01E01+AVC-AAC-+%7BOJ%7D.mp4","amp;tr":["udp%3A%2F%2Ftracker.openbittorrent.com%3A80","udp%3A%2F%2Fopen.demonii.com%3A1337","udp%3A%2F%2Ftracker.coppersurfer.tk%3A6969","udp%3A%2F%2Fexodus.desync.com%3A6969"],"infoHash":"3456c9f6dba7d98589d6b99e86a52f4c8310cfcd","infoHashBuffer":{"type":"Buffer","data":[52,86,201,246,219,167,217,133,137,214,185,158,134,165,47,76,131,16,207,205]},"announce":[],"urlList":[]}}